<svg version="1.1" id="Layer_1" xmlns="http://www.w3.org/2000/svg" xmlns:xlink="http://www.w3.org/1999/xlink" x="0px" y="0px"
	 width="100%" viewBox="0 0 500 500" enable-background="new 0 0 500 500" xml:space="preserve">
<path fill="#FFFFFF" opacity="1.000000" stroke="none" 
	d="
M283.000000,501.000000 
	C188.666687,501.000000 94.833382,501.000000 1.000050,501.000000 
	C1.000034,334.333405 1.000034,167.666794 1.000017,1.000140 
	C167.666565,1.000093 334.333130,1.000093 500.999756,1.000047 
	C500.999847,167.666519 500.999847,334.333038 500.999939,500.999786 
	C428.500000,501.000000 356.000000,501.000000 283.000000,501.000000 
M143.094666,171.658066 
	C142.797791,171.761856 142.494995,171.783691 142.053802,170.976715 
	C140.651260,165.360184 139.248718,159.743668 138.088608,153.301010 
	C141.172089,127.492416 135.386734,103.982758 119.120468,83.550949 
	C102.413383,62.565456 79.038612,56.013988 52.312138,53.683006 
	C53.259632,63.455349 53.787342,72.358047 55.040211,81.157501 
	C58.503853,105.484116 68.390617,126.337456 88.798218,141.169861 
	C101.658302,150.516678 115.387695,158.178833 131.335236,162.816391 
	C132.164810,165.788452 132.994385,168.760498 132.920761,171.809265 
	C129.280655,171.809265 125.640533,171.809265 121.734665,171.809265 
	C121.734665,193.019623 121.734665,213.865799 121.734665,234.979095 
	C122.437309,234.687408 122.927002,234.613663 123.235420,234.337479 
	C136.351761,222.593063 149.463593,210.843521 162.525101,199.038284 
	C163.310638,198.328323 164.150589,197.164352 164.166641,196.198349 
	C164.298477,188.259720 164.241058,180.317978 164.241058,171.808716 
	C160.219864,171.808716 156.114822,171.808716 151.872208,171.010330 
	C152.942917,166.680450 154.013626,162.350586 155.941360,157.970291 
	C160.872574,157.296097 165.878662,156.961273 170.722763,155.892319 
	C200.956009,149.220779 227.225418,135.598358 247.274872,111.400909 
	C264.677856,90.397476 274.057037,65.698677 279.984131,39.465828 
	C281.236176,33.924271 282.188324,28.314959 283.330505,22.471657 
	C252.299286,18.509846 223.525360,22.336798 196.750198,36.740917 
	C173.561493,49.215656 156.874847,67.597733 149.420654,93.372093 
	C143.800095,112.806290 144.173035,132.413956 148.214264,152.832230 
	C146.659546,159.087036 145.104843,165.341843 143.094666,171.658066 
M187.228165,197.515198 
	C148.433716,231.932129 109.639252,266.349060 70.586121,300.995483 
	C76.668579,307.879181 82.480103,314.456268 88.485046,321.252228 
	C124.515999,289.313232 160.364197,257.536255 196.747452,226.196823 
	C199.279297,231.145966 201.811127,236.095123 203.949127,241.615417 
	C177.651093,264.930359 151.320755,288.209167 125.127472,311.641205 
	C123.375343,313.208618 121.625984,315.932648 121.617111,318.125763 
	C121.418839,367.107178 121.445602,416.089569 121.488609,465.071716 
	C121.494583,471.876129 123.759766,473.990967 130.534348,473.997131 
	C147.194946,474.012268 163.855591,474.009338 180.516174,473.989166 
	C181.931595,473.987457 183.346802,473.802856 184.862625,473.696136 
	C184.862625,441.886658 185.285385,410.563477 184.650009,379.261749 
	C184.403412,367.112915 194.862930,358.663696 205.274384,358.760071 
	C255.418518,359.224182 305.569336,358.968842 355.717773,358.968811 
	C357.626282,358.968811 359.534821,358.968811 361.690460,358.968811 
	C361.690460,344.563721 361.784943,330.918182 361.567596,317.277588 
	C361.541260,315.624603 360.183960,313.604492 358.852386,312.417999 
	C332.240509,288.706146 305.541718,265.091888 278.998596,240.826492 
	C281.646027,235.846024 284.293457,230.865540 287.538696,226.221680 
	C323.154388,257.831024 358.770081,289.440369 394.629211,321.265747 
	C400.649384,314.444336 406.537231,307.772827 412.519104,300.994843 
	C373.155792,266.064240 334.303497,231.587097 295.321777,196.182968 
	C294.837250,191.557800 294.854736,186.813385 293.788910,182.326294 
	C285.108032,145.781219 243.136398,128.830353 212.139755,149.607422 
	C195.451035,160.793900 187.409134,176.996094 187.228165,197.515198 
M240.500000,472.003082 
	C252.612122,472.003082 264.724243,472.003082 276.857697,472.003082 
	C276.857697,464.931519 276.857697,458.368958 276.857697,451.305817 
	C263.189819,451.305817 249.816589,451.305817 235.642380,451.305817 
	C237.060181,449.263519 237.973465,447.933990 238.900787,446.614319 
	C249.618423,431.362396 259.877594,415.756653 271.251526,401.010773 
	C276.946472,393.627472 276.248077,386.170807 275.851562,378.211060 
	C252.067322,378.211060 228.656586,378.211060 205.261902,378.211060 
	C205.261902,385.030975 205.261902,391.577911 205.261902,398.634399 
	C218.282196,398.634399 230.980789,398.634399 244.461044,398.634399 
	C243.039627,400.682343 242.125168,402.015930 241.194626,403.338196 
	C230.466080,418.582428 220.196594,434.181549 208.810425,448.917786 
	C203.102539,456.305023 203.879700,463.782410 204.225998,472.003082 
	C216.214508,472.003082 227.857254,472.003082 240.500000,472.003082 
M371.358490,377.991882 
	C359.915710,377.991882 348.472900,377.991882 337.024597,377.991882 
	C337.024597,409.557648 337.024597,440.615326 337.024597,471.642517 
	C345.527191,471.642517 353.745026,471.642517 362.055695,471.642517 
	C362.055695,466.288330 362.055725,461.292480 362.055725,456.296661 
	C362.055725,451.196747 362.055695,446.096832 362.055695,441.262970 
	C368.059357,440.807129 373.406036,440.691437 378.663788,439.947479 
	C394.370941,437.724884 404.251740,426.402466 404.920685,410.218933 
	C405.607422,393.603241 397.933228,382.825623 382.696655,379.329041 
	C379.312714,378.552551 375.779816,378.425323 371.358490,377.991882 
M290.748291,449.499878 
	C290.748291,456.907837 290.748291,464.315765 290.748291,471.658722 
	C299.588470,471.658722 307.808777,471.658722 315.840759,471.658722 
	C315.840759,440.285583 315.840759,409.253510 315.840759,378.290558 
	C307.312836,378.290558 299.091461,378.290558 290.748291,378.290558 
	C290.748291,401.922729 290.748291,425.211304 290.748291,449.499878 
z"/>
<path fill="#292724" opacity="1.000000" stroke="none" 
	d="
M278.860474,241.457932 
	C305.541718,265.091888 332.240509,288.706146 358.852386,312.417999 
	C360.183960,313.604492 361.541260,315.624603 361.567596,317.277588 
	C361.784943,330.918182 361.690460,344.563721 361.690460,358.968811 
	C359.534821,358.968811 357.626282,358.968811 355.717773,358.968811 
	C305.569336,358.968842 255.418518,359.224182 205.274384,358.760071 
	C194.862930,358.663696 184.403412,367.112915 184.650009,379.261749 
	C185.285385,410.563477 184.862625,441.886658 184.862625,473.696136 
	C183.346802,473.802856 181.931595,473.987457 180.516174,473.989166 
	C163.855591,474.009338 147.194946,474.012268 130.534348,473.997131 
	C123.759766,473.990967 121.494583,471.876129 121.488609,465.071716 
	C121.445602,416.089569 121.418839,367.107178 121.617111,318.125763 
	C121.625984,315.932648 123.375343,313.208618 125.127472,311.641205 
	C151.320755,288.209167 177.651093,264.930359 204.352448,241.581039 
	C215.166809,261.456268 225.577835,281.365875 235.610046,301.337280 
	C230.689011,302.865814 225.783951,303.680267 221.692032,305.956512 
	C215.969528,309.139771 215.956665,316.292114 221.703140,319.287842 
	C234.745087,326.086884 248.307846,326.103729 261.458832,319.675354 
	C267.800446,316.575470 267.745209,309.291412 261.437714,305.876923 
	C257.329956,303.653198 252.409988,302.929810 247.818054,301.172729 
	C251.086578,294.153351 254.254562,287.423553 257.724060,280.852997 
	C264.682373,267.675262 271.805420,254.584549 278.860474,241.457932 
z"/>
<path fill="#BFE064" opacity="1.000000" stroke="none" 
	d="
M148.435669,152.051041 
	C144.173035,132.413956 143.800095,112.806290 149.420654,93.372093 
	C156.874847,67.597733 173.561493,49.215656 196.750198,36.740917 
	C223.525360,22.336798 252.299286,18.509846 283.330505,22.471657 
	C282.188324,28.314959 281.236176,33.924271 279.984131,39.465828 
	C274.057037,65.698677 264.677856,90.397476 247.274872,111.400909 
	C227.225418,135.598358 200.956009,149.220779 170.722763,155.892319 
	C165.878662,156.961273 160.872574,157.296097 155.531281,157.620697 
	C155.834122,155.059784 156.482742,152.825302 157.269669,150.640610 
	C167.036316,123.526718 181.630753,99.754814 205.190552,82.364662 
	C210.650208,78.334717 216.760849,75.188461 222.238846,71.180313 
	C223.642227,70.153488 223.776184,67.391701 224.493347,65.426994 
	C222.616425,65.001846 220.232529,63.615913 218.939835,64.298004 
	C203.518127,72.435318 190.001572,83.009148 178.715607,96.411995 
	C164.820053,112.913910 155.375610,131.788940 148.435669,152.051041 
z"/>
<path fill="#E33A25" opacity="1.000000" stroke="none" 
	d="
M235.988861,301.275482 
	C225.577835,281.365875 215.166809,261.456268 204.549377,241.295471 
	C201.811127,236.095123 199.279297,231.145966 196.383881,225.640396 
	C191.235016,216.392639 187.778519,207.307465 187.756607,197.204239 
	C187.409134,176.996094 195.451035,160.793900 212.139755,149.607422 
	C243.136398,128.830353 285.108032,145.781219 293.788910,182.326294 
	C294.854736,186.813385 294.837250,191.557800 295.299072,197.079376 
	C295.485870,208.171280 291.200195,217.024231 286.940887,225.885071 
	C284.293457,230.865540 281.646027,235.846024 278.929535,241.142212 
	C271.805420,254.584549 264.682373,267.675262 257.724060,280.852997 
	C254.254562,287.423553 251.086578,294.153351 247.505127,301.333069 
	C245.407318,304.751038 243.586624,307.647064 241.602768,310.802643 
	C239.631424,307.457153 237.810135,304.366302 235.988861,301.275482 
M257.018860,214.619537 
	C270.057434,206.029831 274.489777,190.922852 268.009125,177.160904 
	C261.838562,164.057449 246.573944,157.413528 232.826691,161.847733 
	C216.276291,167.186111 207.919495,185.282990 214.656586,201.195663 
	C221.559631,217.500320 240.054840,223.617447 257.018860,214.619537 
z"/>
<path fill="#BFE064" opacity="1.000000" stroke="none" 
	d="
M130.886353,162.290894 
	C115.387695,158.178833 101.658302,150.516678 88.798218,141.169861 
	C68.390617,126.337456 58.503853,105.484116 55.040211,81.157501 
	C53.787342,72.358047 53.259632,63.455349 52.312138,53.683006 
	C79.038612,56.013988 102.413383,62.565456 119.120468,83.550949 
	C135.386734,103.982758 141.172089,127.492416 137.721405,153.448288 
	C131.951721,141.867722 127.440765,129.609161 120.872459,118.575325 
	C115.343147,109.286880 107.544861,101.316154 100.416756,93.050339 
	C99.423996,91.899124 96.516670,92.398949 94.495636,92.134468 
	C94.633888,94.168755 94.641235,96.225410 94.983063,98.224899 
	C95.099045,98.903351 96.039871,99.457565 96.636612,100.034599 
	C109.510612,112.483337 118.456619,127.551170 125.276184,143.901123 
	C127.731201,149.787064 129.049362,156.147171 130.886353,162.290894 
z"/>
<path fill="#2A2825" opacity="1.000000" stroke="none" 
	d="
M240.000000,472.003082 
	C227.857254,472.003082 216.214508,472.003082 204.225998,472.003082 
	C203.879700,463.782410 203.102539,456.305023 208.810425,448.917786 
	C220.196594,434.181549 230.466080,418.582428 241.194626,403.338196 
	C242.125168,402.015930 243.039627,400.682343 244.461044,398.634399 
	C230.980789,398.634399 218.282196,398.634399 205.261902,398.634399 
	C205.261902,391.577911 205.261902,385.030975 205.261902,378.211060 
	C228.656586,378.211060 252.067322,378.211060 275.851562,378.211060 
	C276.248077,386.170807 276.946472,393.627472 271.251526,401.010773 
	C259.877594,415.756653 249.618423,431.362396 238.900787,446.614319 
	C237.973465,447.933990 237.060181,449.263519 235.642380,451.305817 
	C249.816589,451.305817 263.189819,451.305817 276.857697,451.305817 
	C276.857697,458.368958 276.857697,464.931519 276.857697,472.003082 
	C264.724243,472.003082 252.612122,472.003082 240.000000,472.003082 
z"/>
<path fill="#292724" opacity="1.000000" stroke="none" 
	d="
M371.836975,377.995483 
	C375.779816,378.425323 379.312714,378.552551 382.696655,379.329041 
	C397.933228,382.825623 405.607422,393.603241 404.920685,410.218933 
	C404.251740,426.402466 394.370941,437.724884 378.663788,439.947479 
	C373.406036,440.691437 368.059357,440.807129 362.055695,441.262970 
	C362.055695,446.096832 362.055725,451.196747 362.055725,456.296661 
	C362.055725,461.292480 362.055695,466.288330 362.055695,471.642517 
	C353.745026,471.642517 345.527191,471.642517 337.024597,471.642517 
	C337.024597,440.615326 337.024597,409.557648 337.024597,377.991882 
	C348.472900,377.991882 359.915710,377.991882 371.836975,377.995483 
M379.080505,406.765808 
	C377.604187,399.306885 372.842499,397.064178 362.251770,398.964111 
	C362.251770,405.824402 362.251770,412.718689 362.251770,419.585693 
	C373.461090,421.030304 378.574280,417.344116 379.080505,406.765808 
z"/>
<path fill="#2A2825" opacity="1.000000" stroke="none" 
	d="
M187.492386,197.359711 
	C187.778519,207.307465 191.235016,216.392639 196.116364,225.421616 
	C160.364197,257.536255 124.515999,289.313232 88.485046,321.252228 
	C82.480103,314.456268 76.668579,307.879181 70.586121,300.995483 
	C109.639252,266.349060 148.433716,231.932129 187.492386,197.359711 
z"/>
<path fill="#2A2825" opacity="1.000000" stroke="none" 
	d="
M287.239807,226.053375 
	C291.200195,217.024231 295.485870,208.171280 295.363770,197.542877 
	C334.303497,231.587097 373.155792,266.064240 412.519104,300.994843 
	C406.537231,307.772827 400.649384,314.444336 394.629211,321.265747 
	C358.770081,289.440369 323.154388,257.831024 287.239807,226.053375 
z"/>
<path fill="#282623" opacity="1.000000" stroke="none" 
	d="
M290.748291,448.999878 
	C290.748291,425.211304 290.748291,401.922729 290.748291,378.290558 
	C299.091461,378.290558 307.312836,378.290558 315.840759,378.290558 
	C315.840759,409.253510 315.840759,440.285583 315.840759,471.658722 
	C307.808777,471.658722 299.588470,471.658722 290.748291,471.658722 
	C290.748291,464.315765 290.748291,456.907837 290.748291,448.999878 
z"/>
<path fill="#2D2B28" opacity="1.000000" stroke="none" 
	d="
M152.009796,171.808716 
	C156.114822,171.808716 160.219864,171.808716 164.241058,171.808716 
	C164.241058,180.317978 164.298477,188.259720 164.166641,196.198349 
	C164.150589,197.164352 163.310638,198.328323 162.525101,199.038284 
	C149.463593,210.843521 136.351761,222.593063 123.235420,234.337479 
	C122.927002,234.613663 122.437309,234.687408 121.734665,234.979095 
	C121.734665,213.865799 121.734665,193.019623 121.734665,171.809265 
	C125.640533,171.809265 129.280655,171.809265 133.832291,171.824402 
	C137.224640,171.800888 139.705475,171.762253 142.186295,171.723602 
	C142.494995,171.783691 142.797791,171.761856 143.794724,171.717667 
	C146.999786,171.787750 149.504791,171.798233 152.009796,171.808716 
z"/>
<path fill="#71933F" opacity="1.000000" stroke="none" 
	d="
M151.941010,171.409515 
	C149.504791,171.798233 146.999786,171.787750 144.022461,171.686951 
	C145.104843,165.341843 146.659546,159.087036 148.324966,152.441635 
	C155.375610,131.788940 164.820053,112.913910 178.715607,96.411995 
	C190.001572,83.009148 203.518127,72.435318 218.939835,64.298004 
	C220.232529,63.615913 222.616425,65.001846 224.493347,65.426994 
	C223.776184,67.391701 223.642227,70.153488 222.238846,71.180313 
	C216.760849,75.188461 210.650208,78.334717 205.190552,82.364662 
	C181.630753,99.754814 167.036316,123.526718 157.269669,150.640610 
	C156.482742,152.825302 155.834122,155.059784 155.102783,157.645905 
	C154.013626,162.350586 152.942917,166.680450 151.941010,171.409515 
z"/>
<path fill="#71933F" opacity="1.000000" stroke="none" 
	d="
M142.120056,171.350159 
	C139.705475,171.762253 137.224640,171.800888 134.283890,171.786041 
	C132.994385,168.760498 132.164810,165.788452 131.110794,162.553650 
	C129.049362,156.147171 127.731201,149.787064 125.276184,143.901123 
	C118.456619,127.551170 109.510612,112.483337 96.636612,100.034599 
	C96.039871,99.457565 95.099045,98.903351 94.983063,98.224899 
	C94.641235,96.225410 94.633888,94.168755 94.495636,92.134468 
	C96.516670,92.398949 99.423996,91.899124 100.416756,93.050339 
	C107.544861,101.316154 115.343147,109.286880 120.872459,118.575325 
	C127.440765,129.609161 131.951721,141.867722 137.600189,153.861359 
	C139.248718,159.743668 140.651260,165.360184 142.120056,171.350159 
z"/>
<path fill="#F9CA49" opacity="1.000000" stroke="none" 
	d="
M235.610046,301.337280 
	C237.810135,304.366302 239.631424,307.457153 241.602768,310.802643 
	C243.586624,307.647064 245.407318,304.751038 247.540939,301.694641 
	C252.409988,302.929810 257.329956,303.653198 261.437714,305.876923 
	C267.745209,309.291412 267.800446,316.575470 261.458832,319.675354 
	C248.307846,326.103729 234.745087,326.086884 221.703140,319.287842 
	C215.956665,316.292114 215.969528,309.139771 221.692032,305.956512 
	C225.783951,303.680267 230.689011,302.865814 235.610046,301.337280 
z"/>
<path fill="#FFFDFD" opacity="1.000000" stroke="none" 
	d="
M256.700348,214.807739 
	C240.054840,223.617447 221.559631,217.500320 214.656586,201.195663 
	C207.919495,185.282990 216.276291,167.186111 232.826691,161.847733 
	C246.573944,157.413528 261.838562,164.057449 268.009125,177.160904 
	C274.489777,190.922852 270.057434,206.029831 256.700348,214.807739 
z"/>
<path fill="#F9F9F9" opacity="1.000000" stroke="none" 
	d="
M379.097839,407.186249 
	C378.574280,417.344116 373.461090,421.030304 362.251770,419.585693 
	C362.251770,412.718689 362.251770,405.824402 362.251770,398.964111 
	C372.842499,397.064178 377.604187,399.306885 379.097839,407.186249 
z"/>
</svg>